<svg width="169" height="40" viewBox="0 0 169 40" fill="none" xmlns="http://www.w3.org/2000/svg">
<path d="M20 2.5L20 37.5" stroke="black" stroke-width="2" stroke-miterlimit="10" stroke-linejoin="round"/>
<path d="M3.75 11.25L20 20.0594L36.25 11.25" stroke="black" stroke-width="2" stroke-miterlimit="10" stroke-linejoin="round"/>
<path d="M36.25 28.8093L20 20L3.75 28.8093" stroke="black" stroke-width="2" stroke-miterlimit="10" stroke-linejoin="round"/>
<path d="M36.25 28.75V11.25L20 2.5L3.75 11.25V28.75L20 37.5L36.25 28.75Z" stroke="black" stroke-width="2" stroke-miterlimit="10" stroke-linejoin="round"/>
<path d="M65.24 28.288C63.544 28.288 62.088 27.928 60.872 27.208C59.656 26.472 58.72 25.456 58.064 24.16C57.408 22.848 57.08 21.336 57.08 19.624C57.08 17.912 57.408 16.4 58.064 15.088C58.72 13.776 59.656 12.752 60.872 12.016C62.088 11.28 63.544 10.912 65.24 10.912C67.256 10.912 68.904 11.416 70.184 12.424C71.48 13.416 72.288 14.816 72.608 16.624H69.224C69.016 15.712 68.568 15 67.88 14.488C67.208 13.96 66.312 13.696 65.192 13.696C63.64 13.696 62.424 14.224 61.544 15.28C60.664 16.336 60.224 17.784 60.224 19.624C60.224 21.464 60.664 22.912 61.544 23.968C62.424 25.008 63.64 25.528 65.192 25.528C66.312 25.528 67.208 25.288 67.88 24.808C68.568 24.312 69.016 23.632 69.224 22.768H72.608C72.288 24.496 71.48 25.848 70.184 26.824C68.904 27.8 67.256 28.288 65.24 28.288ZM80.9673 28.288C79.8153 28.288 78.7753 28.024 77.8473 27.496C76.9353 26.968 76.2073 26.24 75.6633 25.312C75.1353 24.368 74.8713 23.28 74.8713 22.048C74.8713 20.816 75.1433 19.736 75.6873 18.808C76.2313 17.864 76.9593 17.128 77.8713 16.6C78.7993 16.072 79.8393 15.808 80.9913 15.808C82.1273 15.808 83.1513 16.072 84.0633 16.6C84.9913 17.128 85.7193 17.864 86.2473 18.808C86.7913 19.736 87.0633 20.816 87.0633 22.048C87.0633 23.28 86.7913 24.368 86.2473 25.312C85.7193 26.24 84.9913 26.968 84.0633 27.496C83.1353 28.024 82.1033 28.288 80.9673 28.288ZM80.9673 25.624C81.7673 25.624 82.4633 25.328 83.0553 24.736C83.6473 24.128 83.9433 23.232 83.9433 22.048C83.9433 20.864 83.6473 19.976 83.0553 19.384C82.4633 18.776 81.7753 18.472 80.9913 18.472C80.1753 18.472 79.4713 18.776 78.8793 19.384C78.3033 19.976 78.0153 20.864 78.0153 22.048C78.0153 23.232 78.3033 24.128 78.8793 24.736C79.4713 25.328 80.1673 25.624 80.9673 25.624ZM89.81 28V16.096H92.522L92.786 17.704C93.17 17.128 93.674 16.672 94.298 16.336C94.938 15.984 95.674 15.808 96.506 15.808C98.346 15.808 99.65 16.52 100.418 17.944C100.85 17.288 101.426 16.768 102.146 16.384C102.882 16 103.682 15.808 104.546 15.808C106.098 15.808 107.29 16.272 108.122 17.2C108.954 18.128 109.37 19.488 109.37 21.28V28H106.298V21.568C106.298 20.544 106.098 19.76 105.698 19.216C105.314 18.672 104.714 18.4 103.898 18.4C103.066 18.4 102.394 18.704 101.882 19.312C101.386 19.92 101.138 20.768 101.138 21.856V28H98.066V21.568C98.066 20.544 97.866 19.76 97.466 19.216C97.066 18.672 96.45 18.4 95.618 18.4C94.802 18.4 94.138 18.704 93.626 19.312C93.13 19.92 92.882 20.768 92.882 21.856V28H89.81ZM112.287 33.28V16.096H115.023L115.359 17.8C115.743 17.272 116.247 16.808 116.871 16.408C117.511 16.008 118.335 15.808 119.343 15.808C120.463 15.808 121.463 16.08 122.343 16.624C123.223 17.168 123.919 17.912 124.431 18.856C124.943 19.8 125.199 20.872 125.199 22.072C125.199 23.272 124.943 24.344 124.431 25.288C123.919 26.216 123.223 26.952 122.343 27.496C121.463 28.024 120.463 28.288 119.343 28.288C118.447 28.288 117.663 28.12 116.991 27.784C116.319 27.448 115.775 26.976 115.359 26.368V33.28H112.287ZM118.695 25.6C119.671 25.6 120.479 25.272 121.119 24.616C121.759 23.96 122.079 23.112 122.079 22.072C122.079 21.032 121.759 20.176 121.119 19.504C120.479 18.832 119.671 18.496 118.695 18.496C117.703 18.496 116.887 18.832 116.247 19.504C115.623 20.16 115.311 21.008 115.311 22.048C115.311 23.088 115.623 23.944 116.247 24.616C116.887 25.272 117.703 25.6 118.695 25.6ZM132.047 28.288C131.023 28.288 130.183 28.128 129.527 27.808C128.871 27.472 128.383 27.032 128.063 26.488C127.743 25.944 127.583 25.344 127.583 24.688C127.583 23.584 128.015 22.688 128.879 22C129.743 21.312 131.039 20.968 132.767 20.968H135.791V20.68C135.791 19.864 135.559 19.264 135.095 18.88C134.631 18.496 134.055 18.304 133.367 18.304C132.743 18.304 132.199 18.456 131.735 18.76C131.271 19.048 130.983 19.48 130.871 20.056H127.871C127.951 19.192 128.239 18.44 128.735 17.8C129.247 17.16 129.903 16.672 130.703 16.336C131.503 15.984 132.399 15.808 133.391 15.808C135.087 15.808 136.423 16.232 137.399 17.08C138.375 17.928 138.863 19.128 138.863 20.68V28H136.247L135.959 26.08C135.607 26.72 135.111 27.248 134.471 27.664C133.847 28.08 133.039 28.288 132.047 28.288ZM132.743 25.888C133.623 25.888 134.303 25.6 134.783 25.024C135.279 24.448 135.591 23.736 135.719 22.888H133.103C132.287 22.888 131.703 23.04 131.351 23.344C130.999 23.632 130.823 23.992 130.823 24.424C130.823 24.888 130.999 25.248 131.351 25.504C131.703 25.76 132.167 25.888 132.743 25.888ZM141.794 28V16.096H144.506L144.746 18.112C145.114 17.408 145.642 16.848 146.33 16.432C147.034 16.016 147.858 15.808 148.802 15.808C150.274 15.808 151.418 16.272 152.234 17.2C153.05 18.128 153.458 19.488 153.458 21.28V28H150.386V21.568C150.386 20.544 150.178 19.76 149.762 19.216C149.346 18.672 148.698 18.4 147.818 18.4C146.954 18.4 146.242 18.704 145.682 19.312C145.138 19.92 144.866 20.768 144.866 21.856V28H141.794ZM157.486 33.28L160.246 27.208H159.526L154.894 16.096H158.23L161.566 24.472L165.046 16.096H168.31L160.75 33.28H157.486Z" fill="black"/>
</svg>
