<svg width="16" height="13" viewBox="0 0 16 13" fill="none" xmlns="http://www.w3.org/2000/svg">
<path d="M15.3334 0.99999C14.6949 1.45031 13.9881 1.79473 13.24 2.01999C12.8385 1.55833 12.3049 1.23112 11.7114 1.08261C11.1178 0.934097 10.493 0.971454 9.92141 1.18963C9.3498 1.4078 8.85898 1.79626 8.51534 2.30247C8.1717 2.80868 7.99182 3.40821 8.00002 4.01999V4.68666C6.82844 4.71704 5.66754 4.4572 4.62069 3.93029C3.57385 3.40338 2.67356 2.62575 2.00002 1.66666C2.00002 1.66666 -0.666646 7.66666 5.33335 10.3333C3.96037 11.2653 2.32479 11.7326 0.666687 11.6667C6.66669 15 14 11.6667 14 3.99999C13.9994 3.81429 13.9816 3.62905 13.9467 3.44666C14.6271 2.77565 15.1072 1.92847 15.3334 0.99999Z" fill="black"/>
</svg>
